<?xml version="1.0" encoding="UTF-8"?><svg id="a" xmlns="http://www.w3.org/2000/svg" width="41" height="41" viewBox="0 0 41 41"><path d="M18.5,10.5v2c0,1.1046-.8954,2-2,2H2.5c-1.1046,0-2-.8954-2-2v-2c0-1.1046,.8954-2,2-2h14c1.1046,0,2,.8954,2,2Zm20,22h-14c-1.1046,0-2,.8954-2,2v2c0,1.1046,.8954,2,2,2h14c1.1046,0,2-.8954,2-2v-2c0-1.1046-.8954-2-2-2Z" fill="#60a5fa"/><path d="M16.5,8.5H2.5l1.6213-6.4851c.2226-.8903,1.0225-1.5149,1.9402-1.5149h6.877c.9177,0,1.7177,.6246,1.9402,1.5149l1.6213,6.4851Zm20.3787,17.5149c-.2226-.8903-1.0225-1.5149-1.9402-1.5149h-6.877c-.9177,0-1.7177,.6246-1.9402,1.5149l-1.6213,6.4851h14l-1.6213-6.4851ZM5.1,11.5c0,.5523-.4477,1-1,1s-1-.4477-1-1,.4477-1,1-1,1,.4477,1,1Zm9.8-1c-.5523,0-1,.4477-1,1s.4477,1,1,1,1-.4477,1-1-.4477-1-1-1Zm11.2,24c-.5523,0-1,.4477-1,1s.4477,1,1,1,1-.4477,1-1-.4477-1-1-1Zm10.8,0c-.5523,0-1,.4477-1,1s.4477,1,1,1,1-.4477,1-1-.4477-1-1-1Z" fill="#fff"/><path d="M37.7139,15.1284c-.5781,2.0977-2.0127,3.8926-3.9365,4.9253-.0752,.0405-.1562,.0596-.2363,.0596-.1777,0-.3506-.0952-.4404-.2637-.1309-.2432-.0391-.5464,.2041-.6768,1.6836-.9038,2.9395-2.4751,3.4443-4.3101,.0742-.2656,.3457-.4233,.6152-.3491,.2666,.0732,.4229,.3486,.3496,.6147ZM15.376,35h-4.3823c-.5278,0-1.0552-.0596-1.5674-.1772-.2666-.0625-.5366,.1064-.5991,.3755-.062,.269,.1064,.5371,.3755,.5991,.5854,.1343,1.188,.2026,1.7905,.2026h4.3828c.2764,0,.5-.2236,.5-.5s-.2236-.5-.5-.5ZM4.3271,24.5352c.0811,.0493,.1709,.0728,.2593,.0728,.1689,0,.3335-.0854,.4277-.2402,.9941-1.6338,2.6304-2.8027,4.4888-3.207,.2695-.0591,.4409-.3252,.3823-.5952-.0591-.27-.3247-.4414-.5952-.3823-2.1245,.4629-3.9946,1.7983-5.1304,3.665-.1436,.2358-.0684,.5435,.1675,.687Zm9.1079-3.5352h6.0762c.2764,0,.5-.2236,.5-.5s-.2236-.5-.5-.5h-6.0762c-.2764,0-.5,.2236-.5,.5s.2236,.5,.5,.5Zm-9.4351,7v-.0425c0-.2764-.2236-.4785-.5-.4785s-.5,.2446-.5,.521c0,2.1934,.8701,4.2393,2.4507,5.7617,.0967,.0938,.2217,.1401,.3467,.1401,.1309,0,.2617-.0513,.3599-.1533,.1919-.1987,.186-.5151-.0132-.7065-1.3823-1.3325-2.144-3.123-2.144-5.042Zm25.6387-8h-6.0762c-.2764,0-.5,.2236-.5,.5s.2236,.5,.5,.5h6.0762c.2764,0,.5-.2236,.5-.5s-.2236-.5-.5-.5Zm3.6582-13.1772c1.6846,.9009,2.9424,2.4697,3.4512,4.3047,.0605,.2217,.2617,.3667,.4814,.3667,.0439,0,.0889-.0059,.1338-.0181,.2656-.0737,.4219-.3491,.3477-.6152-.5811-2.0977-2.0186-3.8906-3.9434-4.9199-.2383-.1289-.5449-.0396-.6768,.2051-.1299,.2437-.0381,.5464,.2061,.6768Zm-9.7461-.8228h6.0762c.2764,0,.5-.2236,.5-.5s-.2236-.5-.5-.5h-6.0762c-.2764,0-.5,.2236-.5,.5s.2236,.5,.5,.5ZM0,12.5v-2c0-1.2413,.9121-2.2664,2.0997-2.4595L3.6362,1.8936c.2788-1.1152,1.2759-1.8936,2.4253-1.8936h6.877c1.1494,0,2.1465,.7783,2.4253,1.8936l1.5365,6.1469c1.1876,.1932,2.0997,1.2182,2.0997,2.4595v2c0,1.2072-.8603,2.2171-2,2.4494v1.5506c0,.2764-.2236,.5-.5,.5s-.5-.2236-.5-.5v-1.5H3v1.5c0,.2764-.2236,.5-.5,.5s-.5-.2236-.5-.5v-1.5506c-1.1397-.2323-2-1.2422-2-2.4494Zm3.1401-4.5H15.8599l-1.4658-5.8643c-.1675-.6685-.7661-1.1357-1.4556-1.1357H6.0615c-.6895,0-1.2881,.4673-1.4556,1.1357l-1.4658,5.8643ZM1,12.5c0,.8271,.6729,1.5,1.5,1.5h14c.8271,0,1.5-.6729,1.5-1.5v-2c0-.8271-.6729-1.5-1.5-1.5H2.5c-.8271,0-1.5,.6729-1.5,1.5v2Zm40,22v2c0,1.2072-.86,2.2171-2,2.4494v1.5506c0,.2764-.2236,.5-.5,.5s-.5-.2236-.5-.5v-1.5h-13v1.5c0,.2764-.2236,.5-.5,.5s-.5-.2236-.5-.5v-1.5506c-1.14-.2323-2-1.2422-2-2.4494v-2c0-1.2412,.9116-2.2661,2.0992-2.4595l1.5365-6.147c.2793-1.1152,1.2764-1.8936,2.4258-1.8936h6.877c1.1494,0,2.1465,.7783,2.4258,1.8936l1.5365,6.147c1.1877,.1934,2.0992,1.2183,2.0992,2.4595Zm-15.8594-2.5h12.7188l-1.4658-5.8643c-.167-.6685-.7656-1.1357-1.4551-1.1357h-6.877c-.6895,0-1.2881,.4673-1.4551,1.1357l-1.4658,5.8643Zm14.8594,2.5c0-.8271-.6729-1.5-1.5-1.5h-14c-.8271,0-1.5,.6729-1.5,1.5v2c0,.8271,.6729,1.5,1.5,1.5h14c.8271,0,1.5-.6729,1.5-1.5v-2ZM19.5,5h-1.8132l.2499,1h1.5633c.2764,0,.5-.2236,.5-.5s-.2236-.5-.5-.5Zm1,30h-1c-.2764,0-.5,.2236-.5,.5s.2236,.5,.5,.5h1v-1Z"/></svg>