<?xml version="1.0" encoding="UTF-8"?>
<svg id="_14_Clock_" data-name="14 Clock
" xmlns="http://www.w3.org/2000/svg" viewBox="0 0 512 512">
  <defs>
    <style>
      .cls-1 {
        fill: #73ceff;
      }

      .cls-1, .cls-2, .cls-3, .cls-4 {
        stroke-width: 0px;
      }

      .cls-2 {
        fill: #4e5c6f;
      }

      .cls-3 {
        fill: #8c8c8e;
      }

      .cls-4 {
        fill: #f0f0f0;
      }
    </style>
  </defs>
  <g>
    <circle class="cls-1" cx="256" cy="256" r="248"/>
    <circle class="cls-4" cx="256" cy="256" r="200"/>
    <circle class="cls-3" cx="256" cy="256" r="16"/>
  </g>
  <g>
    <path class="cls-2" d="m437.02,74.98C388.67,26.63,324.38,0,256,0S123.33,26.63,74.98,74.98C26.63,123.33,0,187.62,0,256s26.63,132.67,74.98,181.02c48.35,48.35,112.64,74.98,181.02,74.98s132.67-26.63,181.02-74.98c48.35-48.35,74.98-112.64,74.98-181.02s-26.63-132.67-74.98-181.02Zm-181.02,421.02c-132.34,0-240-107.66-240-240S123.66,16,256,16s240,107.66,240,240-107.66,240-240,240Z"/>
    <path class="cls-2" d="m256,48c-114.69,0-208,93.31-208,208s93.31,208,208,208,208-93.31,208-208S370.69,48,256,48Zm102.82,370.08l-11.89-20.59c-2.21-3.83-7.1-5.14-10.93-2.93-3.83,2.21-5.14,7.1-2.93,10.93l11.9,20.61c-24.39,12.81-51.85,20.52-80.97,21.72v-23.82c0-4.42-3.58-8-8-8s-8,3.58-8,8v23.82c-29.12-1.2-56.58-8.91-80.97-21.72l11.9-20.61c2.21-3.83.9-8.72-2.93-10.93-3.83-2.21-8.72-.9-10.93,2.93l-11.89,20.59c-23.83-15.17-44.1-35.44-59.27-59.27l20.59-11.89c3.83-2.21,5.14-7.1,2.93-10.93-2.21-3.83-7.1-5.14-10.93-2.93l-20.61,11.9c-12.81-24.39-20.52-51.85-21.72-80.97h23.82c4.42,0,8-3.58,8-8s-3.58-8-8-8h-23.82c1.2-29.12,8.91-56.58,21.72-80.97l20.61,11.9c1.26.73,2.63,1.07,3.99,1.07,2.76,0,5.45-1.44,6.94-4,2.21-3.83.9-8.72-2.93-10.93l-20.59-11.89c15.17-23.83,35.44-44.1,59.27-59.27l11.89,20.59c1.48,2.57,4.17,4,6.94,4,1.36,0,2.73-.35,3.99-1.07,3.83-2.21,5.14-7.1,2.93-10.93l-11.9-20.61c24.39-12.81,51.85-20.52,80.97-21.72v23.82c0,4.42,3.58,8,8,8s8-3.58,8-8v-23.82c29.12,1.2,56.58,8.91,80.97,21.72l-11.9,20.61c-2.21,3.83-.9,8.72,2.93,10.93,1.26.73,2.63,1.07,3.99,1.07,2.76,0,5.45-1.44,6.94-4l11.89-20.59c23.83,15.17,44.1,35.44,59.27,59.27l-20.59,11.89c-3.83,2.21-5.14,7.1-2.93,10.93,1.48,2.57,4.17,4,6.94,4,1.36,0,2.73-.35,3.99-1.07l20.61-11.9c12.81,24.39,20.52,51.85,21.72,80.97h-23.82c-4.42,0-8,3.58-8,8s3.58,8,8,8h23.82c-1.2,29.12-8.91,56.58-21.72,80.97l-20.61-11.9c-3.83-2.21-8.72-.9-10.93,2.93-2.21,3.83-.9,8.72,2.93,10.93l20.59,11.89c-15.17,23.83-35.44,44.1-59.27,59.27Z"/>
    <path class="cls-2" d="m264,233.38v-113.38c0-4.42-3.58-8-8-8s-8,3.58-8,8v113.38c-6.81,2.41-12.21,7.82-14.62,14.62h-97.38c-4.42,0-8,3.58-8,8s3.58,8,8,8h97.38c3.3,9.31,12.19,16,22.62,16,13.23,0,24-10.77,24-24,0-10.43-6.69-19.32-16-22.62Zm-8,30.62c-4.41,0-8-3.59-8-8s3.59-8,8-8,8,3.59,8,8-3.59,8-8,8Z"/>
  </g>
</svg>