<?xml version="1.0" encoding="iso-8859-1"?>
<!-- Generator: Adobe Illustrator 25.4.0, SVG Export Plug-In . SVG Version: 6.00 Build 0)  -->
<svg version="1.1" xmlns="http://www.w3.org/2000/svg" xmlns:xlink="http://www.w3.org/1999/xlink" x="0px" y="0px"
	 viewBox="0 0 64 64" style="enable-background:new 0 0 64 64;" xml:space="preserve">
<g id="fast-shipping">
	<g>
		<path style="fill:#2A0A97;" d="M53.714,45.417c-1.324,0-2.402-1.078-2.402-2.402s1.078-2.402,2.402-2.402
			c1.324,0,2.402,1.078,2.402,2.402S55.038,45.417,53.714,45.417z M53.714,41.986c-0.568,0-1.029,0.462-1.029,1.029
			s0.462,1.029,1.029,1.029c0.568,0,1.029-0.462,1.029-1.029S54.282,41.986,53.714,41.986z M19.586,45.417
			c-1.324,0-2.402-1.078-2.402-2.402s1.078-2.402,2.402-2.402c1.324,0,2.402,1.078,2.402,2.402S20.91,45.417,19.586,45.417z
			 M19.586,41.986c-0.568,0-1.029,0.462-1.029,1.029s0.462,1.029,1.029,1.029s1.029-0.462,1.029-1.029S20.154,41.986,19.586,41.986z
			"/>
		<rect x="8.235" y="21.991" style="fill:#2A0A97;" width="18.148" height="1.372"/>
		<rect x="4.804" y="26.108" style="fill:#2A0A97;" width="18.148" height="1.372"/>
		<polygon style="fill:#2A0A97;" points="11.324,30.226 12.706,30.226 12.869,28.853 11.487,28.853 		"/>
		<polygon style="fill:#2A0A97;" points="11.813,26.108 13.195,26.108 13.358,24.736 11.976,24.736 		"/>
		<path style="fill:#2A0A97;" d="M59.642,31.385l-3.414-4.875c-0.281-0.544-0.851-0.893-1.467-0.893h-4.835l-0.828,8.033h9.365
			c0.54,0,1.03-0.295,1.279-0.774C59.991,32.397,59.953,31.824,59.642,31.385z M58.523,32.243c-0.019,0.035-0.047,0.035-0.06,0.035
			h-7.844l0.544-5.289h3.598c0.109,0,0.207,0.063,0.253,0.163l3.505,5.019C58.528,32.183,58.542,32.206,58.523,32.243z"/>
		<path style="fill:#2A0A97;" d="M63.856,31.876c-0.005-0.367-0.121-0.719-0.337-1.019l-5.849-8.121
			c-0.335-0.467-0.879-0.744-1.451-0.744h-7.921l-0.014,0.04l0.419-3.772l0.002-0.077c0-1.291-1.049-2.342-2.34-2.342H15.101
			c-1.277,0-2.319,1.028-2.342,2.298l-0.456,3.854h1.381l0.442-3.728l0.005-0.081c0-0.535,0.435-0.967,0.97-0.967h31.264
			c0.521,0,0.949,0.416,0.967,0.935L44.66,42.262H24.678c-0.365-2.479-2.516-4.396-5.089-4.396c-2.563,0-4.707,1.895-5.089,4.396
			h-2.144c-0.523,0-0.951-0.414-0.97-0.933l0.993-8.358h-1.381l-0.979,8.242l-0.005,0.081c0,1.291,1.049,2.342,2.342,2.342h2.121
			c0.307,2.544,2.481,4.523,5.112,4.523c2.612,0,4.775-1.958,5.1-4.523h23.915c0.309,2.544,2.484,4.523,5.112,4.523
			c2.612,0,4.775-1.958,5.103-4.523h3.349L64,41.092L63.856,31.876z M19.589,46.785c-2.084,0-3.777-1.691-3.777-3.812
			c0.019-2.061,1.714-3.735,3.777-3.735c2.058,0,3.751,1.674,3.772,3.777C23.361,45.095,21.668,46.785,19.589,46.785z
			 M53.716,46.785c-2.081,0-3.777-1.691-3.777-3.812c0.021-2.061,1.716-3.735,3.777-3.735c2.061,0,3.751,1.674,3.772,3.777
			C57.488,45.095,55.795,46.785,53.716,46.785z M61.465,42.262h-2.658c-0.365-2.479-2.519-4.396-5.091-4.396
			c-2.561,0-4.705,1.895-5.089,4.396h-2.586l2.095-18.898h8.082c0.133,0,0.26,0.065,0.337,0.172l5.849,8.124
			c0.051,0.07,0.079,0.151,0.079,0.237l0.137,8.761L61.465,42.262z"/>
		<path style="fill:#E3DDFF;" d="M62.484,31.897c0-0.086-0.028-0.167-0.079-0.237l-5.849-8.124
			c-0.077-0.107-0.205-0.172-0.337-0.172h-8.082l-2.095,18.898h2.586c0.384-2.5,2.528-4.396,5.089-4.396
			c2.572,0,4.726,1.916,5.091,4.396h2.658l1.156-1.605L62.484,31.897z M59.742,32.876c-0.249,0.479-0.74,0.774-1.279,0.774h-9.365
			l0.828-8.033h4.835c0.616,0,1.186,0.349,1.467,0.893l3.414,4.875C59.953,31.824,59.991,32.397,59.742,32.876z"/>
		<rect y="30.226" style="fill:#2A0A97;" width="18.148" height="1.372"/>
	</g>
</g>
<g id="Layer_1">
</g>
</svg>
