<?xml version="1.0" encoding="utf-8"?>
<!-- Generator: Adobe Illustrator 16.0.0, SVG Export Plug-In . SVG Version: 6.00 Build 0)  -->
<!DOCTYPE svg PUBLIC "-//W3C//DTD SVG 1.1//EN" "http://www.w3.org/Graphics/SVG/1.1/DTD/svg11.dtd">
<svg version="1.1" id="_x3C_Layer_x3E_" xmlns="http://www.w3.org/2000/svg" xmlns:xlink="http://www.w3.org/1999/xlink" x="0px"
	 y="0px" width="32px" height="32px" viewBox="0 0 32 32" enable-background="new 0 0 32 32" xml:space="preserve">
<g id="wheelchair_x2C__Disabled_x2C__handicap_1_">
	<g id="XMLID_1349_">
		<circle id="XMLID_1368_" fill="#FFE0B2" cx="16" cy="5" r="2.5"/>
		<path id="XMLID_5150_" fill="#FFF176" d="M23,18.5h-4.475l0.072-3.16l0.743,0.913C19.523,16.412,19.758,16.5,20,16.5h3
			c0.552,0,1-0.447,1-1s-0.448-1-1-1h-2.624l-1.854-3.497c-0.727-0.939-1.864-1.547-3.163-1.5C14.312,9.541,13.5,10.451,13.5,11.5v7
			c0,1.657,1.344,3,3,3H17h2h2.828l2.732,6.312c0.412,0.951,1.489,1.422,2.467,1.078L26.255,27.5l-1.8-7.864
			C24.288,18.969,23.688,18.5,23,18.5z"/>
	</g>
	<g id="XMLID_1350_">
		<g id="XMLID_5149_">
			
				<circle id="XMLID_1366_" fill="none" stroke="#455A64" stroke-linecap="round" stroke-linejoin="round" stroke-miterlimit="10" cx="16" cy="5" r="2.5"/>
			<path id="XMLID_1393_" fill="none" stroke="#455A64" stroke-linecap="round" stroke-linejoin="round" stroke-miterlimit="10" d="
				M26.18,27.173l-1.725-7.537C24.288,18.969,23.688,18.5,23,18.5h-5"/>
			<path id="XMLID_1353_" fill="none" stroke="#455A64" stroke-linecap="round" stroke-linejoin="round" stroke-miterlimit="10" d="
				M13.5,15.65v2.85c0,1.657,1.344,3,3,3H17h2h2.828l2.675,6.245c0.391,0.913,1.392,1.4,2.351,1.146l0.688-0.182"/>
			<path id="XMLID_1352_" fill="none" stroke="#455A64" stroke-linecap="round" stroke-linejoin="round" stroke-miterlimit="10" d="
				M19.341,16.253C19.523,16.412,19.758,16.5,20,16.5h3c0.552,0,1-0.447,1-1s-0.448-1-1-1h-2.624l-1.954-3.497
				c-0.896-1.294-1.764-1.547-3.063-1.5C14.312,9.541,13.5,10.451,13.5,11.5V14"/>
			<g id="XMLID_5697_">
				
					<path id="XMLID_5473_" fill="none" stroke="#455A64" stroke-linecap="round" stroke-linejoin="round" stroke-miterlimit="10" d="
					M20.376,14.5H23c0.552,0,1,0.447,1,1s-0.448,1-1,1h-3c-0.242,0-0.477-0.088-0.659-0.247l-2.464-3.254"/>
			</g>
		</g>
		<path id="XMLID_1357_" fill="none" stroke="#455A64" stroke-linecap="round" stroke-linejoin="round" stroke-miterlimit="10" d="
			M17.285,24.528C16.623,26.822,14.508,28.5,12,28.5c-3.037,0-5.5-2.462-5.5-5.5c0-2.848,2.164-5.19,4.938-5.472"/>
		
			<circle id="XMLID_1392_" fill="none" stroke="#455A64" stroke-linecap="round" stroke-linejoin="round" stroke-miterlimit="10" cx="23.5" cy="29" r="1.5"/>
		
			<circle id="XMLID_1348_" fill="none" stroke="#455A64" stroke-linecap="round" stroke-linejoin="round" stroke-miterlimit="10" cx="12" cy="23" r="7.5"/>
		<path id="XMLID_1355_" fill="none" stroke="#455A64" stroke-linecap="round" stroke-linejoin="round" stroke-miterlimit="10" d="
			M8.5,10.5h2.096c0.514,0,0.943,0.389,0.994,0.9L12,15.5"/>
		
			<line id="XMLID_1376_" fill="none" stroke="#455A64" stroke-linecap="round" stroke-linejoin="round" stroke-miterlimit="10" x1="12" y1="23.05" x2="12" y2="22.95"/>
		
			<line id="XMLID_1414_" fill="none" stroke="#455A64" stroke-linecap="round" stroke-linejoin="round" stroke-miterlimit="10" x1="3.5" y1="30.5" x2="12.1" y2="30.5"/>
		
			<line id="XMLID_1413_" fill="none" stroke="#455A64" stroke-linecap="round" stroke-linejoin="round" stroke-miterlimit="10" x1="1.4" y1="30.5" x2="1.5" y2="30.5"/>
	</g>
</g>
</svg>
