<?xml version="1.0" encoding="utf-8"?>
<!-- Generator: Adobe Illustrator 28.7.5, SVG Export Plug-In . SVG Version: 9.03 Build 55973)  -->
<svg version="1.0" id="Layer_1" xmlns="http://www.w3.org/2000/svg" xmlns:xlink="http://www.w3.org/1999/xlink" x="0px" y="0px"
	 viewBox="0 0 64 64" style="enable-background:new 0 0 64 64;" xml:space="preserve">
<style type="text/css">
	.st0{fill:#31323A;}
	.st1{fill:#B4735E;}
	.st2{fill:#F0997D;}
	.st3{fill:#FFC3A1;}
	.st4{fill:#FFC26F;}
	.st5{fill:#BF9253;}
	.st6{fill:#D6D6D8;}
	.st7{fill:#D8D9DA;}
	.st8{fill:#CDF5FD;}
	.st9{fill:#A4A4BE;}
	.st10{fill:#E4C59E;}
	.st11{fill:#FFF0D1;}
	.st12{fill:#E0C8D1;}
	.st13{fill:#FFCDB2;}
	.st14{fill:#79798D;}
</style>
<g>
	<path class="st0" d="M50.3,33.2h-1.1c-0.4-1.7-2-3-3.8-3H38c-0.7,0-1.3-0.5-1.4-1.2l-1.4-9.3c4-0.3,7.2-3.7,7.2-7.8
		c0-4.3-3.5-7.8-7.8-7.8c-4.3,0-7.8,3.5-7.8,7.8c0,0.7,0.1,1.3,0.3,1.9c-2.3,0.2-4.5,1.1-6.3,2.4l-5.9,4.4
		c-3.5,2.6-5.5,6.8-5.3,11.2c0.2,3.5,1.7,6.7,4.2,9L9.5,54.5c-0.4,1.3-0.2,2.6,0.6,3.7c0.8,1.1,2,1.7,3.3,1.7c1.8,0,3.4-1.1,3.9-2.9
		l3.8-11.7l1.4,0.8c1.6,0.9,2.6,2.5,2.6,4.3v4.8c0,2.4,1.9,4.3,4.3,4.3c2.4,0,4.3-1.9,4.3-4.3v-5.3c0-4.1-1.6-8-4.5-10.9
		c1.1-0.9,1.7-1.9,2.1-2.8c1.3,1.1,2.9,1.8,4.7,1.8h9.4c1.8,0,3.4-1.3,3.8-3h1.1c1.4,0,2.6,1.2,2.6,2.6v20.9c0,0.5,0.4,0.9,0.9,0.9
		c0.5,0,0.9-0.4,0.9-0.9V37.6C54.7,35.1,52.8,33.2,50.3,33.2z M34.6,6c3.3,0,5.9,2.6,5.9,5.9c0,3.3-2.7,5.9-5.9,5.9
		c-3.3,0-5.9-2.6-5.9-5.9C28.7,8.7,31.3,6,34.6,6z M15.5,56.4c-0.3,0.9-1.2,1.6-2.2,1.6c-0.7,0-1.4-0.3-1.8-0.9
		c-0.4-0.6-0.5-1.3-0.3-2l4.2-12.9c0.4,0.2,0.7,0.5,1.1,0.7l2.9,1.6L15.5,56.4z M31.8,49.9v5.3c0,1.3-1.1,2.4-2.4,2.4
		c-1.3,0-2.4-1.1-2.4-2.4v-4.8c0-2.5-1.4-4.8-3.6-6l-6-3.2c-3.5-1.9-5.7-5.5-5.9-9.4c0-0.8,0-1.5,0.1-2.2c2.2,5.1,7.5,6.2,9.9,6.4
		c1.1,0.1,2.1,0.5,3,1.3l2.7,2.3C30.1,42.2,31.8,45.9,31.8,49.9z M45.4,36.2H36c-2.5,0-4.6-1.8-5.1-4.2l-1-5.4
		c-0.1-0.5-0.6-0.8-1.1-0.7c-0.5,0.1-0.8,0.6-0.8,1.1l1,5.4c0.1,0.8,0.4,1.5,0.8,2.1c-0.1,0.6-0.4,2.1-2,3.3l-2.1-1.8
		c-1.1-1-2.5-1.6-4-1.7c-3-0.3-8.2-1.7-9.1-7.8c0.8-1.6,1.9-3,3.4-4.1l5.9-4.4c1.7-1.3,3.8-2,5.9-2.1c1.1,2,3.1,3.5,5.5,3.9l1.4,9.6
		C35,30.8,36.3,32,38,32h7.5c1.1,0,2.1,0.9,2.1,2.1C47.5,35.2,46.6,36.2,45.4,36.2z"/>
	<path class="st3" d="M40.5,11.9c0,3.3-2.7,5.9-5.9,5.9c-3.3,0-5.9-2.6-5.9-5.9c0-3.3,2.7-5.9,5.9-5.9C37.9,6,40.5,8.7,40.5,11.9z"
		/>
	<path class="st4" d="M47.5,34.1c0,1.1-0.9,2.1-2.1,2.1H36c-2.5,0-4.6-1.8-5.1-4.2l-1-5.4c-0.1-0.5-0.6-0.8-1.1-0.7
		c-0.5,0.1-0.8,0.6-0.8,1.1l1,5.4c0.1,0.8,0.4,1.5,0.8,2.1c-0.1,0.6-0.4,2.1-2,3.3l-2.1-1.8c-1.1-1-2.5-1.6-4-1.7
		c-3-0.3-8.2-1.7-9.1-7.8c0.8-1.6,1.9-3,3.4-4.1l5.9-4.4c1.7-1.3,3.8-2,5.9-2.1c1.1,2,3.1,3.5,5.5,3.9l1.4,9.6
		C35,30.8,36.3,32,38,32h7.5C46.6,32,47.5,33,47.5,34.1z"/>
	<path class="st5" d="M31.8,49.9v5.3c0,1.3-1.1,2.4-2.4,2.4c-1.3,0-2.4-1.1-2.4-2.4v-4.8c0-2.5-1.4-4.8-3.6-6l-6-3.2
		c-3.5-1.9-5.7-5.5-5.9-9.4c0-0.8,0-1.5,0.1-2.2c2.2,5.1,7.5,6.2,9.9,6.4c1.1,0.1,2.1,0.5,3,1.3l2.7,2.3
		C30.1,42.2,31.8,45.9,31.8,49.9z"/>
	<path class="st5" d="M19.4,44.4l-3.9,12c-0.3,0.9-1.2,1.6-2.2,1.6c-0.7,0-1.4-0.3-1.8-0.9c-0.4-0.6-0.5-1.3-0.3-2l4.2-12.9
		c0.4,0.2,0.7,0.5,1.1,0.7L19.4,44.4z"/>
</g>
</svg>
