<svg id="Layer_1" data-name="Layer 1" xmlns="http://www.w3.org/2000/svg" viewBox="0 0 24 24"><path d="M13.55054,17.5H10.44946a2.5,2.5,0,1,0,0,1h3.10108a2.5,2.5,0,1,0,0-1ZM8,19.5A1.5,1.5,0,1,1,9.5,18,1.50164,1.50164,0,0,1,8,19.5ZM17.5,18A1.5,1.5,0,1,1,16,16.5,1.50164,1.50164,0,0,1,17.5,18ZM4,18.5h.05054A3.9272,3.9272,0,0,1,4,18a3.9272,3.9272,0,0,1,.05054-.5H4A1.50164,1.50164,0,0,1,2.5,16V10.5H20.82928A4.49286,4.49286,0,0,1,21.5,12.84961V16A1.50164,1.50164,0,0,1,20,17.5h-.05054A3.9272,3.9272,0,0,1,20,18a3.9272,3.9272,0,0,1-.05054.5H20A2.50263,2.50263,0,0,0,22.5,16V12.84961a5.50269,5.50269,0,0,0-1.32422-3.5791L17.57715,5.07178A4.49517,4.49517,0,0,0,14.16016,3.5H4A2.50263,2.50263,0,0,0,1.5,6V16A2.50263,2.50263,0,0,0,4,18.5Zm9.5-14h.66016a3.49339,3.49339,0,0,1,2.65722,1.22217L20.05487,9.5H13.5Zm-6,0h5v5h-5ZM2.5,6A1.50164,1.50164,0,0,1,4,4.5H6.5v5h-4Z"/></svg>